<!DOCTYPE svg PUBLIC "-//W3C//DTD SVG 1.1//EN" "http://www.w3.org/Graphics/SVG/1.1/DTD/svg11.dtd">
<!-- Uploaded to: SVG Repo, www.svgrepo.com, Transformed by: SVG Repo Mixer Tools -->
<svg width="800px" height="800px" viewBox="0 0 20 20" version="1.1" xmlns="http://www.w3.org/2000/svg" xmlns:xlink="http://www.w3.org/1999/xlink" fill="#ffffff">
<g id="SVGRepo_bgCarrier" stroke-width="0"/>
<g id="SVGRepo_tracerCarrier" stroke-linecap="round" stroke-linejoin="round"/>
<g id="SVGRepo_iconCarrier"> <title>images [#ffffff]</title> <desc>Created with Sketch.</desc> <defs> </defs> <g id="Page-1" stroke="none" stroke-width="1" fill="none" fill-rule="evenodd"> <g id="Dribbble-Light-Preview" transform="translate(-180.000000, -3919.000000)" fill="#ffffff"> <g id="icons" transform="translate(56.000000, 160.000000)"> <path d="M135.083,3769.667 C136.188,3769.667 137.083,3768.772 137.083,3767.667 C137.083,3766.562 136.188,3765.667 135.083,3765.667 C133.979,3765.667 133.083,3766.562 133.083,3767.667 C133.083,3768.772 133.979,3769.667 135.083,3769.667 L135.083,3769.667 Z M126,3777 L127.956,3777 L130.824,3773.882 L127.594,3770.402 L126,3771.996 L126,3777 Z M126,3769.167 L127.578,3767.589 L127.594,3767.605 L127.61,3767.589 L132.238,3772.218 L133.669,3770.787 L133.685,3770.803 L133.701,3770.787 L138,3775.086 L138,3765 L126,3765 L126,3769.167 Z M136.586,3777 L133.685,3774.099 L130.784,3777 L136.586,3777 Z M124,3779 L140,3779 L140,3763 L124,3763 L124,3779 Z M144,3759 L144,3775 L142,3775 L142,3761 L128,3761 L128,3759 L144,3759 Z" id="images-[#ffffff]"> </path> </g> </g> </g> </g>
</svg>